<?xml version="1.0" encoding="UTF-8"?><svg xmlns="http://www.w3.org/2000/svg" xmlns:xlink="http://www.w3.org/1999/xlink" fill-opacity="1" color-rendering="auto" color-interpolation="auto" text-rendering="auto" stroke="black" stroke-linecap="square" width="772" stroke-miterlimit="10" shape-rendering="auto" stroke-opacity="1" fill="black" stroke-dasharray="none" font-weight="normal" stroke-width="1" height="954" font-family="'Dialog'" font-style="normal" stroke-linejoin="miter" font-size="12px" stroke-dashoffset="0" image-rendering="auto">
  <!--Generated by ySVG 2.5-->
  <defs id="genericDefs"/>
  <g>
    <defs id="defs1">
      <clipPath clipPathUnits="userSpaceOnUse" id="clipPath1">
        <path d="M0 0 L772 0 L772 954 L0 954 L0 0 Z"/>
      </clipPath>
      <clipPath clipPathUnits="userSpaceOnUse" id="clipPath2">
        <path d="M-36 -246 L736 -246 L736 708 L-36 708 L-36 -246 Z"/>
      </clipPath>
    </defs>
    <g fill="white" text-rendering="geometricPrecision" shape-rendering="geometricPrecision" transform="translate(36,246)" stroke="white">
      <rect x="-36" width="772" height="954" y="-246" clip-path="url(#clipPath2)" stroke="none"/>
    </g>
    <g fill="rgb(255,204,0)" text-rendering="geometricPrecision" shape-rendering="geometricPrecision" transform="matrix(1,0,0,1,36,246)" stroke="rgb(255,204,0)">
      <rect x="169.7286" width="136.5625" height="30" y="-118.9444" clip-path="url(#clipPath2)" stroke="none"/>
    </g>
    <g text-rendering="geometricPrecision" stroke-miterlimit="1.45" shape-rendering="geometricPrecision" font-family="sans-serif" transform="matrix(1,0,0,1,36,246)" stroke-linecap="butt">
      <text x="184.9796" xml:space="preserve" y="-99.2306" clip-path="url(#clipPath2)" stroke="none">External Application</text>
      <rect fill="none" x="169.7286" width="136.5625" height="30" y="-118.9444" clip-path="url(#clipPath2)"/>
    </g>
    <g fill="rgb(255,204,0)" text-rendering="geometricPrecision" shape-rendering="geometricPrecision" transform="matrix(1,0,0,1,36,246)" stroke="rgb(255,204,0)">
      <rect x="486.5951" width="92.5625" height="30" y="-118.9444" clip-path="url(#clipPath2)" stroke="none"/>
    </g>
    <g text-rendering="geometricPrecision" stroke-miterlimit="1.45" shape-rendering="geometricPrecision" font-family="sans-serif" transform="matrix(1,0,0,1,36,246)" stroke-linecap="butt">
      <text x="520.8705" xml:space="preserve" y="-99.2306" clip-path="url(#clipPath2)" stroke="none">PBX</text>
      <rect fill="none" x="486.5951" width="92.5625" height="30" y="-118.9444" clip-path="url(#clipPath2)"/>
    </g>
    <g fill="silver" text-rendering="geometricPrecision" shape-rendering="geometricPrecision" transform="matrix(1,0,0,1,36,246)" stroke="silver">
      <rect x="232.5098" width="11" height="301.3" y="-58.9444" clip-path="url(#clipPath2)" stroke="none"/>
    </g>
    <g text-rendering="geometricPrecision" stroke-miterlimit="1.45" shape-rendering="geometricPrecision" transform="matrix(1,0,0,1,36,246)" stroke-linecap="butt">
      <rect fill="none" x="232.5098" width="11" height="301.3" y="-58.9444" clip-path="url(#clipPath2)"/>
    </g>
    <g fill="silver" text-rendering="geometricPrecision" shape-rendering="geometricPrecision" transform="matrix(1,0,0,1,36,246)" stroke="silver">
      <rect x="527.3763" width="11" height="301.3" y="-58.9444" clip-path="url(#clipPath2)" stroke="none"/>
    </g>
    <g text-rendering="geometricPrecision" stroke-miterlimit="1.45" shape-rendering="geometricPrecision" transform="matrix(1,0,0,1,36,246)" stroke-linecap="butt">
      <rect fill="none" x="527.3763" width="11" height="301.3" y="-58.9444" clip-path="url(#clipPath2)"/>
    </g>
    <g fill="silver" text-rendering="geometricPrecision" shape-rendering="geometricPrecision" transform="matrix(1,0,0,1,36,246)" stroke="silver">
      <rect x="232.5098" width="11" height="210.1111" y="272.3556" clip-path="url(#clipPath2)" stroke="none"/>
    </g>
    <g text-rendering="geometricPrecision" stroke-miterlimit="1.45" shape-rendering="geometricPrecision" transform="matrix(1,0,0,1,36,246)" stroke-linecap="butt">
      <rect fill="none" x="232.5098" width="11" height="210.1111" y="272.3556" clip-path="url(#clipPath2)"/>
    </g>
    <g fill="silver" text-rendering="geometricPrecision" shape-rendering="geometricPrecision" transform="matrix(1,0,0,1,36,246)" stroke="silver">
      <rect x="527.3763" width="11" height="179.3442" y="513.4667" clip-path="url(#clipPath2)" stroke="none"/>
    </g>
    <g text-rendering="geometricPrecision" stroke-miterlimit="1.45" shape-rendering="geometricPrecision" transform="matrix(1,0,0,1,36,246)" stroke-linecap="butt">
      <rect fill="none" x="527.3763" width="11" height="179.3442" y="513.4667" clip-path="url(#clipPath2)"/>
    </g>
    <g fill="silver" text-rendering="geometricPrecision" shape-rendering="geometricPrecision" transform="matrix(1,0,0,1,36,246)" stroke="silver">
      <rect x="527.3763" width="11" height="210.1111" y="272.3556" clip-path="url(#clipPath2)" stroke="none"/>
    </g>
    <g text-rendering="geometricPrecision" stroke-miterlimit="1.45" shape-rendering="geometricPrecision" transform="matrix(1,0,0,1,36,246)" stroke-linecap="butt">
      <rect fill="none" x="527.3763" width="11" height="210.1111" y="272.3556" clip-path="url(#clipPath2)"/>
    </g>
    <g fill="silver" text-rendering="geometricPrecision" shape-rendering="geometricPrecision" transform="matrix(1,0,0,1,36,246)" stroke="silver">
      <rect x="232.5098" width="11" height="179.3442" y="513.4667" clip-path="url(#clipPath2)" stroke="none"/>
    </g>
    <g text-rendering="geometricPrecision" stroke-miterlimit="1.45" shape-rendering="geometricPrecision" transform="matrix(1,0,0,1,36,246)" stroke-linecap="butt">
      <rect fill="none" x="232.5098" width="11" height="179.3442" y="513.4667" clip-path="url(#clipPath2)"/>
    </g>
    <g fill="rgb(204,255,204)" text-rendering="geometricPrecision" shape-rendering="geometricPrecision" transform="matrix(1,0,0,1,36,246)" stroke="rgb(204,255,204)">
      <rect x="568.3763" y="-2.8016" clip-path="url(#clipPath2)" width="151.7793" rx="4" ry="4" height="51" stroke="none"/>
    </g>
    <g text-rendering="geometricPrecision" stroke-miterlimit="1.45" shape-rendering="geometricPrecision" font-family="sans-serif" transform="matrix(1,0,0,1,36,246)" stroke-linecap="butt">
      <text x="597.2386" xml:space="preserve" y="20.0617" clip-path="url(#clipPath2)" stroke="none">Generate random</text>
      <text x="602.2396" xml:space="preserve" y="34.7629" clip-path="url(#clipPath2)" stroke="none">challenge string</text>
      <rect x="568.3763" y="-2.8016" clip-path="url(#clipPath2)" fill="none" width="151.7793" rx="4" ry="4" height="51"/>
    </g>
    <g fill="rgb(204,255,204)" text-rendering="geometricPrecision" shape-rendering="geometricPrecision" transform="matrix(1,0,0,1,36,246)" stroke="rgb(204,255,204)">
      <rect x="-12.2695" y="40.5063" clip-path="url(#clipPath2)" width="214.7793" rx="4" ry="4" height="92.3984" stroke="none"/>
    </g>
    <g text-rendering="geometricPrecision" stroke-miterlimit="1.45" shape-rendering="geometricPrecision" font-family="sans-serif" transform="matrix(1,0,0,1,36,246)" stroke-linecap="butt">
      <text x="48.169" xml:space="preserve" y="62.0171" clip-path="url(#clipPath2)" stroke="none">Calculate "digest"</text>
      <text x="31.751" xml:space="preserve" y="76.7183" clip-path="url(#clipPath2)" stroke="none">as SHA256 of the string</text>
      <text x="33.4034" xml:space="preserve" y="91.4194" clip-path="url(#clipPath2)" stroke="none">&lt;app&gt;:&lt;domain&gt;:&lt;sip&gt;</text>
      <text x="59.753" xml:space="preserve" y="106.1206" clip-path="url(#clipPath2)" stroke="none">:&lt;guid&gt;:&lt;dn&gt;</text>
      <text x="26.4044" xml:space="preserve" y="120.8218" clip-path="url(#clipPath2)" stroke="none">:&lt;challenge&gt;:&lt;password&gt;</text>
      <rect x="-12.2695" y="40.5063" clip-path="url(#clipPath2)" fill="none" width="214.7793" rx="4" ry="4" height="92.3984"/>
    </g>
    <g fill="rgb(204,255,204)" text-rendering="geometricPrecision" shape-rendering="geometricPrecision" transform="matrix(1,0,0,1,36,246)" stroke="rgb(204,255,204)">
      <rect x="271.8158" y="-230.2108" clip-path="url(#clipPath2)" width="214.7793" rx="4" ry="4" height="94.1111" stroke="none"/>
    </g>
    <g text-rendering="geometricPrecision" stroke-miterlimit="1.45" shape-rendering="geometricPrecision" font-family="sans-serif" transform="matrix(1,0,0,1,36,246)" stroke-linecap="butt">
      <text x="349.5219" xml:space="preserve" y="-215.1943" clip-path="url(#clipPath2)" stroke="none">App Object</text>
      <text x="325.8441" xml:space="preserve" y="-200.4932" clip-path="url(#clipPath2)" stroke="none">Name: pbxadminapi</text>
      <text x="323.849" xml:space="preserve" y="-185.792" clip-path="url(#clipPath2)" stroke="none">Password: password</text>
      <text x="353.1927" xml:space="preserve" y="-171.0908" clip-path="url(#clipPath2)" stroke="none">App URL:</text>
      <text x="281.1488" xml:space="preserve" y="-156.3896" clip-path="url(#clipPath2)" stroke="none">http://1.2.3.4/PBX0/APPS/websocket</text>
      <text x="327.1742" xml:space="preserve" y="-141.6885" clip-path="url(#clipPath2)" stroke="none">Enabled Admin API</text>
      <rect x="271.8158" y="-230.2108" clip-path="url(#clipPath2)" fill="none" width="214.7793" rx="4" ry="4" height="94.1111"/>
    </g>
    <g fill="rgb(204,255,204)" text-rendering="geometricPrecision" shape-rendering="geometricPrecision" transform="matrix(1,0,0,1,36,246)" stroke="rgb(204,255,204)">
      <rect x="-20.1718" y="436.6016" clip-path="url(#clipPath2)" width="222.6816" rx="4" ry="4" height="73.1111" stroke="none"/>
    </g>
    <g text-rendering="geometricPrecision" stroke-miterlimit="1.45" shape-rendering="geometricPrecision" font-family="sans-serif" transform="matrix(1,0,0,1,36,246)" stroke-linecap="butt">
      <text x="-9.4687" xml:space="preserve" y="463.1698" clip-path="url(#clipPath2)" stroke="none">Change PBX Object Parameter "filter"</text>
      <text x="-9.4687" xml:space="preserve" y="477.871" clip-path="url(#clipPath2)" stroke="none">from "normal" to "external"</text>
      <text x="-9.4687" xml:space="preserve" y="492.5721" clip-path="url(#clipPath2)" stroke="none">use GUID to specify the PBX Object</text>
      <rect x="-20.1718" y="436.6016" clip-path="url(#clipPath2)" fill="none" width="222.6816" rx="4" ry="4" height="73.1111"/>
      <path fill="none" stroke-dasharray="6,2" d="M238.0098 -88.9444 L238.0098 -58.9444" clip-path="url(#clipPath2)"/>
      <path fill="none" d="M243.5484 -2.432 L519.3732 -2.432" clip-path="url(#clipPath2)"/>
      <path d="M527.3732 -2.432 L515.3732 -7.432 L518.3732 -2.432 L515.3732 2.568 Z" clip-path="url(#clipPath2)" stroke="none"/>
      <rect x="324.8874" y="-11.7825" clip-path="url(#clipPath2)" fill="white" width="121.1113" height="18.7012" stroke="none"/>
      <text x="326.8874" xml:space="preserve" y="2.2819" clip-path="url(#clipPath2)" stroke="none">{"mt":"AppChallenge"}</text>
      <path fill="none" d="M243.5396 112.9556 L519.3453 112.9556" clip-path="url(#clipPath2)"/>
      <path d="M527.3453 112.9556 L515.3453 107.9556 L518.3453 112.9556 L515.3453 117.9556 Z" clip-path="url(#clipPath2)" stroke="none"/>
      <rect x="317.2175" y="74.2026" clip-path="url(#clipPath2)" fill="white" width="136.4512" height="77.5059" stroke="none"/>
      <text x="319.2175" xml:space="preserve" y="88.2671" clip-path="url(#clipPath2)" stroke="none">{</text>
      <text x="319.2175" xml:space="preserve" y="102.9683" clip-path="url(#clipPath2)" stroke="none">    "mt": "AppLogin",</text>
      <text x="319.2175" xml:space="preserve" y="117.6694" clip-path="url(#clipPath2)" stroke="none">    "digest": "7013...39f7",</text>
      <text x="319.2175" xml:space="preserve" y="132.3706" clip-path="url(#clipPath2)" stroke="none">    "app": "pbxadminapi"</text>
      <text x="319.2175" xml:space="preserve" y="147.0718" clip-path="url(#clipPath2)" stroke="none">}</text>
      <path fill="none" stroke-dasharray="6,2" d="M532.8763 -88.9444 L532.8763 -58.9444" clip-path="url(#clipPath2)"/>
      <path fill="none" d="M243.5289 -43.3289 L518.3453 -43.3289" stroke-width="2" clip-path="url(#clipPath2)"/>
      <path d="M527.3453 -43.3289 L513.8453 -48.9539 L517.2203 -43.3289 L513.8453 -37.7039 Z" stroke-width="2" clip-path="url(#clipPath2)" stroke="none"/>
    </g>
    <g stroke-linecap="butt" transform="matrix(1,0,0,1,36,246)" fill="white" text-rendering="geometricPrecision" shape-rendering="geometricPrecision" stroke="white" stroke-width="2" stroke-miterlimit="1.45">
      <rect x="288.0613" width="194.7637" height="33.4023" y="-60.0301" clip-path="url(#clipPath2)" stroke="none"/>
    </g>
    <g text-rendering="geometricPrecision" stroke-miterlimit="1.45" shape-rendering="geometricPrecision" font-family="sans-serif" transform="matrix(1,0,0,1,36,246)" stroke-linecap="butt">
      <text x="356.4245" xml:space="preserve" y="-45.9656" clip-path="url(#clipPath2)" stroke="none">Connect to</text>
      <text x="290.0612" xml:space="preserve" y="-31.2644" clip-path="url(#clipPath2)" stroke="none">ws://1.2.3.4/PBX0/APPS/websocket</text>
      <path fill="none" d="M527.3453 47.3591 L251.525 47.3591" clip-path="url(#clipPath2)"/>
      <path d="M243.525 47.3591 L255.525 52.3591 L252.525 47.3591 L255.525 42.3591 Z" clip-path="url(#clipPath2)" stroke="none"/>
      <rect x="289.5202" y="15.9567" clip-path="url(#clipPath2)" fill="white" width="191.8457" height="62.8047" stroke="none"/>
      <text x="291.5202" xml:space="preserve" y="30.0212" clip-path="url(#clipPath2)" stroke="none">{</text>
      <text x="291.5202" xml:space="preserve" y="44.7224" clip-path="url(#clipPath2)" stroke="none">    "mt": "AppChallengeResult",</text>
      <text x="291.5202" xml:space="preserve" y="59.4235" clip-path="url(#clipPath2)" stroke="none">    "challenge": "609f44c1f7043ba1"</text>
      <text x="291.5202" xml:space="preserve" y="74.1247" clip-path="url(#clipPath2)" stroke="none">}</text>
      <path fill="none" d="M527.3732 194.0285 L251.5197 194.0285" clip-path="url(#clipPath2)"/>
      <path d="M243.5197 194.0285 L255.5197 199.0285 L252.5197 194.0285 L255.5197 189.0285 Z" clip-path="url(#clipPath2)" stroke="none"/>
      <rect x="314.2263" y="162.6261" clip-path="url(#clipPath2)" fill="white" width="142.4336" height="62.8047" stroke="none"/>
      <text x="316.2263" xml:space="preserve" y="176.6906" clip-path="url(#clipPath2)" stroke="none">{</text>
      <text x="316.2263" xml:space="preserve" y="191.3918" clip-path="url(#clipPath2)" stroke="none">    "mt": "AppLoginResult",</text>
      <text x="316.2263" xml:space="preserve" y="206.0929" clip-path="url(#clipPath2)" stroke="none">    "ok": true</text>
      <text x="316.2263" xml:space="preserve" y="220.7941" clip-path="url(#clipPath2)" stroke="none">}</text>
      <path fill="none" stroke-dasharray="6,2" d="M238.0098 242.3556 L238.0098 272.3556" clip-path="url(#clipPath2)"/>
      <path fill="none" d="M243.5425 300.8456 L519.3737 300.8456" clip-path="url(#clipPath2)"/>
      <path d="M527.3737 300.8456 L515.3737 295.8456 L518.3737 300.8456 L515.3737 305.8456 Z" clip-path="url(#clipPath2)" stroke="none"/>
      <rect x="319.2302" y="262.0927" clip-path="url(#clipPath2)" fill="white" width="132.4258" height="77.5059" stroke="none"/>
      <text x="321.2302" xml:space="preserve" y="276.1572" clip-path="url(#clipPath2)" stroke="none">{</text>
      <text x="321.2302" xml:space="preserve" y="290.8583" clip-path="url(#clipPath2)" stroke="none">    "api": "PbxAdminApi",</text>
      <text x="321.2302" xml:space="preserve" y="305.5595" clip-path="url(#clipPath2)" stroke="none">    "mt": "GetObject",</text>
      <text x="321.2302" xml:space="preserve" y="320.2607" clip-path="url(#clipPath2)" stroke="none">    "cn": "My Testuser"</text>
      <text x="321.2302" xml:space="preserve" y="334.9619" clip-path="url(#clipPath2)" stroke="none">}</text>
      <path fill="none" stroke-dasharray="6,2" d="M532.8763 242.3556 L532.8763 272.3556" clip-path="url(#clipPath2)"/>
      <path fill="none" d="M527.3547 419.2271 L251.5112 419.2271" clip-path="url(#clipPath2)"/>
      <path d="M243.5112 419.2271 L255.5112 424.2271 L252.5112 419.2271 L255.5112 414.2271 Z" clip-path="url(#clipPath2)" stroke="none"/>
      <rect x="312.571" y="343.7212" clip-path="url(#clipPath2)" fill="white" width="145.7441" height="151.0117" stroke="none"/>
      <text x="314.571" xml:space="preserve" y="357.7856" clip-path="url(#clipPath2)" stroke="none">{</text>
      <text x="314.571" xml:space="preserve" y="372.4868" clip-path="url(#clipPath2)" stroke="none">    "api": "PbxAdminApi",</text>
      <text x="314.571" xml:space="preserve" y="387.188" clip-path="url(#clipPath2)" stroke="none">    "mt": "GetObjectResult",</text>
      <text x="314.571" xml:space="preserve" y="401.8892" clip-path="url(#clipPath2)" stroke="none">    "cn": "My Testuser",</text>
      <text x="314.571" xml:space="preserve" y="416.5903" clip-path="url(#clipPath2)" stroke="none">    ...</text>
      <text x="314.571" xml:space="preserve" y="431.2915" clip-path="url(#clipPath2)" stroke="none">    "e164": "12345",</text>
      <text x="314.571" xml:space="preserve" y="445.9927" clip-path="url(#clipPath2)" stroke="none">    "filter": "normal",</text>
      <text x="314.571" xml:space="preserve" y="460.6938" clip-path="url(#clipPath2)" stroke="none">    "guid": "e1749...1731",</text>
      <text x="314.571" xml:space="preserve" y="475.395" clip-path="url(#clipPath2)" stroke="none">    ...</text>
      <text x="314.571" xml:space="preserve" y="490.0962" clip-path="url(#clipPath2)" stroke="none">}</text>
      <path fill="none" stroke-dasharray="6,2" d="M532.8763 482.4667 L532.8763 513.4667" clip-path="url(#clipPath2)"/>
      <path fill="none" stroke-dasharray="6,2" d="M238.0098 482.4667 L238.0098 513.4667" clip-path="url(#clipPath2)"/>
      <path fill="none" d="M527.3547 646.9749 L251.5422 646.9749" clip-path="url(#clipPath2)"/>
      <path d="M243.5422 646.9749 L255.5422 651.9749 L252.5422 646.9749 L255.5422 641.9749 Z" clip-path="url(#clipPath2)" stroke="none"/>
      <rect x="304.5613" y="615.5726" clip-path="url(#clipPath2)" fill="white" width="161.7637" height="62.8047" stroke="none"/>
      <text x="306.5612" xml:space="preserve" y="629.637" clip-path="url(#clipPath2)" stroke="none">{</text>
      <text x="306.5612" xml:space="preserve" y="644.3382" clip-path="url(#clipPath2)" stroke="none">    "api": "PbxAdminApi",</text>
      <text x="306.5612" xml:space="preserve" y="659.0394" clip-path="url(#clipPath2)" stroke="none">    "mt": "UpdateObjectResult"</text>
      <text x="306.5612" xml:space="preserve" y="673.7405" clip-path="url(#clipPath2)" stroke="none">}</text>
      <path fill="none" d="M243.5415 543.6152 L519.3547 543.6152" clip-path="url(#clipPath2)"/>
      <path d="M527.3547 543.6152 L515.3547 538.6152 L518.3547 543.6152 L515.3547 548.6152 Z" clip-path="url(#clipPath2)" stroke="none"/>
      <rect x="313.5407" y="497.5117" clip-path="url(#clipPath2)" fill="white" width="143.8047" height="92.207" stroke="none"/>
      <text x="315.5407" xml:space="preserve" y="511.5761" clip-path="url(#clipPath2)" stroke="none">{</text>
      <text x="315.5407" xml:space="preserve" y="526.2773" clip-path="url(#clipPath2)" stroke="none">    "api": "PbxAdminApi",</text>
      <text x="315.5407" xml:space="preserve" y="540.9785" clip-path="url(#clipPath2)" stroke="none">    "mt": "UpdateObject",</text>
      <text x="315.5407" xml:space="preserve" y="555.6796" clip-path="url(#clipPath2)" stroke="none">    "guid": "e1749...11731",</text>
      <text x="315.5407" xml:space="preserve" y="570.3808" clip-path="url(#clipPath2)" stroke="none">    "filter": "internal"</text>
      <text x="315.5407" xml:space="preserve" y="585.082" clip-path="url(#clipPath2)" stroke="none">}</text>
    </g>
    <g stroke-linecap="round" transform="matrix(1,0,0,1,36,246)" stroke-dashoffset="2" text-rendering="geometricPrecision" shape-rendering="geometricPrecision" stroke-dasharray="0,4" stroke-miterlimit="1.45">
      <path fill="none" d="M568.3771 5.5714 L538.387 -1.1969" clip-path="url(#clipPath2)"/>
      <path fill="none" d="M568.3812 39.4694 L538.3927 46.097" clip-path="url(#clipPath2)"/>
      <path fill="none" d="M202.5231 51.0407 L232.4958 44.686" clip-path="url(#clipPath2)"/>
      <path fill="none" d="M202.5286 110.2037 L232.5078 115.2037" clip-path="url(#clipPath2)"/>
      <path fill="none" d="M470.485 -136.1045 L503.776 -118.9444" clip-path="url(#clipPath2)"/>
      <path fill="none" d="M190.8018 436.6117 L232.4847 421.3224" clip-path="url(#clipPath2)"/>
      <path fill="none" d="M164.2992 509.7251 L232.4954 543.8259" clip-path="url(#clipPath2)"/>
    </g>
  </g>
</svg>
