<?xml version="1.0" encoding="UTF-8"?><svg xmlns="http://www.w3.org/2000/svg" xmlns:xlink="http://www.w3.org/1999/xlink" fill-opacity="1" color-rendering="auto" color-interpolation="auto" text-rendering="auto" stroke="black" stroke-linecap="square" width="966" stroke-miterlimit="10" shape-rendering="auto" stroke-opacity="1" fill="black" stroke-dasharray="none" font-weight="normal" stroke-width="1" height="1406" font-family="'Dialog'" font-style="normal" stroke-linejoin="miter" font-size="12" stroke-dashoffset="0" image-rendering="auto">
  <!--Generated by ySVG 2.5-->
  <defs id="genericDefs"/>
  <g>
    <defs id="defs1">
      <clipPath clipPathUnits="userSpaceOnUse" id="clipPath1">
        <path d="M0 0 L966 0 L966 1406 L0 1406 L0 0 Z"/>
      </clipPath>
      <clipPath clipPathUnits="userSpaceOnUse" id="clipPath2">
        <path d="M-46 -213 L920 -213 L920 1193 L-46 1193 L-46 -213 Z"/>
      </clipPath>
    </defs>
    <g fill="white" text-rendering="geometricPrecision" shape-rendering="geometricPrecision" transform="translate(46,213)" stroke="white">
      <rect x="-46" width="966" height="1406" y="-213" clip-path="url(#clipPath2)" stroke="none"/>
    </g>
    <g fill="rgb(255,204,0)" text-rendering="geometricPrecision" shape-rendering="geometricPrecision" transform="matrix(1,0,0,1,46,213)" stroke="rgb(255,204,0)">
      <rect x="167.7286" width="138.5625" height="30" y="-118.9444" clip-path="url(#clipPath2)" stroke="none"/>
    </g>
    <g text-rendering="geometricPrecision" stroke-miterlimit="1.45" shape-rendering="geometricPrecision" font-family="sans-serif" transform="matrix(1,0,0,1,46,213)" stroke-linecap="butt">
      <text x="198.3292" xml:space="preserve" y="-99.2306" clip-path="url(#clipPath2)" stroke="none">myApps Client</text>
      <rect fill="none" x="167.7286" width="138.5625" height="30" y="-118.9444" clip-path="url(#clipPath2)"/>
    </g>
    <g fill="rgb(255,204,0)" text-rendering="geometricPrecision" shape-rendering="geometricPrecision" transform="matrix(1,0,0,1,46,213)" stroke="rgb(255,204,0)">
      <rect x="647.5951" width="92.5625" height="30" y="-118.9444" clip-path="url(#clipPath2)" stroke="none"/>
    </g>
    <g text-rendering="geometricPrecision" stroke-miterlimit="1.45" shape-rendering="geometricPrecision" font-family="sans-serif" transform="matrix(1,0,0,1,46,213)" stroke-linecap="butt">
      <text x="681.8705" xml:space="preserve" y="-99.2306" clip-path="url(#clipPath2)" stroke="none">PBX</text>
      <rect fill="none" x="647.5951" width="92.5625" height="30" y="-118.9444" clip-path="url(#clipPath2)"/>
    </g>
    <g fill="silver" text-rendering="geometricPrecision" shape-rendering="geometricPrecision" transform="matrix(1,0,0,1,46,213)" stroke="silver">
      <rect x="232.5098" width="11" height="475.6333" y="-58.9444" clip-path="url(#clipPath2)" stroke="none"/>
    </g>
    <g text-rendering="geometricPrecision" stroke-miterlimit="1.45" shape-rendering="geometricPrecision" transform="matrix(1,0,0,1,46,213)" stroke-linecap="butt">
      <rect fill="none" x="232.5098" width="11" height="475.6333" y="-58.9444" clip-path="url(#clipPath2)"/>
    </g>
    <g fill="silver" text-rendering="geometricPrecision" shape-rendering="geometricPrecision" transform="matrix(1,0,0,1,46,213)" stroke="silver">
      <rect x="688.3763" width="11" height="475.6333" y="-58.9444" clip-path="url(#clipPath2)" stroke="none"/>
    </g>
    <g text-rendering="geometricPrecision" stroke-miterlimit="1.45" shape-rendering="geometricPrecision" transform="matrix(1,0,0,1,46,213)" stroke-linecap="butt">
      <rect fill="none" x="688.3763" width="11" height="475.6333" y="-58.9444" clip-path="url(#clipPath2)"/>
    </g>
    <g fill="silver" text-rendering="geometricPrecision" shape-rendering="geometricPrecision" transform="matrix(1,0,0,1,46,213)" stroke="silver">
      <rect x="232.5098" width="11" height="675.822" y="468.5079" clip-path="url(#clipPath2)" stroke="none"/>
    </g>
    <g text-rendering="geometricPrecision" stroke-miterlimit="1.45" shape-rendering="geometricPrecision" transform="matrix(1,0,0,1,46,213)" stroke-linecap="butt">
      <rect fill="none" x="232.5098" width="11" height="675.822" y="468.5079" clip-path="url(#clipPath2)"/>
    </g>
    <g fill="silver" text-rendering="geometricPrecision" shape-rendering="geometricPrecision" transform="matrix(1,0,0,1,46,213)" stroke="silver">
      <rect x="688.3763" width="11" height="675.822" y="468.5079" clip-path="url(#clipPath2)" stroke="none"/>
    </g>
    <g text-rendering="geometricPrecision" stroke-miterlimit="1.45" shape-rendering="geometricPrecision" transform="matrix(1,0,0,1,46,213)" stroke-linecap="butt">
      <rect fill="none" x="688.3763" width="11" height="675.822" y="468.5079" clip-path="url(#clipPath2)"/>
    </g>
    <g fill="rgb(204,255,204)" text-rendering="geometricPrecision" shape-rendering="geometricPrecision" transform="matrix(1,0,0,1,46,213)" stroke="rgb(204,255,204)">
      <rect x="722.3763" y="247.3968" clip-path="url(#clipPath2)" width="151.7793" rx="4" ry="4" height="51" stroke="none"/>
    </g>
    <g text-rendering="geometricPrecision" stroke-miterlimit="1.45" shape-rendering="geometricPrecision" font-family="sans-serif" transform="matrix(1,0,0,1,46,213)" stroke-linecap="butt">
      <text x="735.2367" xml:space="preserve" y="262.9095" clip-path="url(#clipPath2)" stroke="none">In case session is valid,</text>
      <text x="746.2318" xml:space="preserve" y="277.6107" clip-path="url(#clipPath2)" stroke="none">the response would</text>
      <text x="761.2406" xml:space="preserve" y="292.3119" clip-path="url(#clipPath2)" stroke="none">contain digest</text>
      <rect x="722.3763" y="247.3968" clip-path="url(#clipPath2)" fill="none" width="151.7793" rx="4" ry="4" height="51"/>
    </g>
    <g fill="rgb(204,255,204)" text-rendering="geometricPrecision" shape-rendering="geometricPrecision" transform="matrix(1,0,0,1,46,213)" stroke="rgb(204,255,204)">
      <rect x="-20.1718" y="141.256" clip-path="url(#clipPath2)" width="214.7793" rx="4" ry="4" height="103.3984" stroke="none"/>
    </g>
    <g text-rendering="geometricPrecision" stroke-miterlimit="1.45" shape-rendering="geometricPrecision" font-family="sans-serif" transform="matrix(1,0,0,1,46,213)" stroke-linecap="butt">
      <text x="31.5948" xml:space="preserve" y="168.2668" clip-path="url(#clipPath2)" stroke="none">Calculate "response"</text>
      <text x="23.8487" xml:space="preserve" y="182.9679" clip-path="url(#clipPath2)" stroke="none">as SHA256 of the string</text>
      <text x="6.8214" xml:space="preserve" y="197.6691" clip-path="url(#clipPath2)" stroke="none">innovaphoneAppClient:&lt;type&gt;</text>
      <text x="-10.8447" xml:space="preserve" y="212.3703" clip-path="url(#clipPath2)" stroke="none">:&lt;domain&gt;:&lt;username&gt;:&lt;password&gt;</text>
      <text x="27.8331" xml:space="preserve" y="227.0714" clip-path="url(#clipPath2)" stroke="none">:&lt;nonce&gt;:&lt;challenge&gt;</text>
      <rect x="-20.1718" y="141.256" clip-path="url(#clipPath2)" fill="none" width="214.7793" rx="4" ry="4" height="103.3984"/>
    </g>
    <g fill="rgb(204,255,204)" text-rendering="geometricPrecision" shape-rendering="geometricPrecision" transform="matrix(1,0,0,1,46,213)" stroke="rgb(204,255,204)">
      <rect x="401.0534" y="-197.086" clip-path="url(#clipPath2)" width="151.7793" rx="4" ry="4" height="73.1111" stroke="none"/>
    </g>
    <g text-rendering="geometricPrecision" stroke-miterlimit="1.45" shape-rendering="geometricPrecision" font-family="sans-serif" transform="matrix(1,0,0,1,46,213)" stroke-linecap="butt">
      <text x="445.2673" xml:space="preserve" y="-170.5177" clip-path="url(#clipPath2)" stroke="none">User Object</text>
      <text x="422.9255" xml:space="preserve" y="-155.8165" clip-path="url(#clipPath2)" stroke="none">Name: administrator</text>
      <text x="421.5866" xml:space="preserve" y="-141.1154" clip-path="url(#clipPath2)" stroke="none">Password: password</text>
      <rect x="401.0534" y="-197.086" clip-path="url(#clipPath2)" fill="none" width="151.7793" rx="4" ry="4" height="73.1111"/>
    </g>
    <g fill="rgb(204,255,204)" text-rendering="geometricPrecision" shape-rendering="geometricPrecision" transform="matrix(1,0,0,1,46,213)" stroke="rgb(204,255,204)">
      <rect x="-30.2517" y="-58.9444" clip-path="url(#clipPath2)" width="221.3591" rx="4" ry="4" height="123.3984" stroke="none"/>
    </g>
    <g text-rendering="geometricPrecision" stroke-miterlimit="1.45" shape-rendering="geometricPrecision" font-family="sans-serif" transform="matrix(1,0,0,1,46,213)" stroke-linecap="butt">
      <text x="31.0832" xml:space="preserve" y="-29.2843" clip-path="url(#clipPath2)" stroke="none">Try to register with</text>
      <text x="5.7238" xml:space="preserve" y="-14.5831" clip-path="url(#clipPath2)" stroke="none">existing session credentials.</text>
      <text x="23.7326" xml:space="preserve" y="0.1181" clip-path="url(#clipPath2)" stroke="none">In case of a first login</text>
      <text x="5.381" xml:space="preserve" y="14.8192" clip-path="url(#clipPath2)" stroke="none">no session data is available,</text>
      <text x="-22.6356" xml:space="preserve" y="29.5204" clip-path="url(#clipPath2)" stroke="none">so a username and a password should</text>
      <text x="5.381" xml:space="preserve" y="44.2216" clip-path="url(#clipPath2)" stroke="none">be used instead (see below)</text>
      <rect x="-30.2517" y="-58.9444" clip-path="url(#clipPath2)" fill="none" width="221.3591" rx="4" ry="4" height="123.3984"/>
    </g>
    <g fill="rgb(204,255,204)" text-rendering="geometricPrecision" shape-rendering="geometricPrecision" transform="matrix(1,0,0,1,46,213)" stroke="rgb(204,255,204)">
      <rect x="-8.0859" y="459.4984" clip-path="url(#clipPath2)" width="174.7793" rx="4" ry="4" height="65.3984" stroke="none"/>
    </g>
    <g text-rendering="geometricPrecision" stroke-miterlimit="1.45" shape-rendering="geometricPrecision" font-family="sans-serif" transform="matrix(1,0,0,1,46,213)" stroke-linecap="butt">
      <text x="29.9591" xml:space="preserve" y="489.5609" clip-path="url(#clipPath2)" stroke="none">Try to register with</text>
      <text x="13.5997" xml:space="preserve" y="504.2621" clip-path="url(#clipPath2)" stroke="none">username and password</text>
      <rect x="-8.0859" y="459.4984" clip-path="url(#clipPath2)" fill="none" width="174.7793" rx="4" ry="4" height="65.3984"/>
    </g>
    <g fill="rgb(204,255,204)" text-rendering="geometricPrecision" shape-rendering="geometricPrecision" transform="matrix(1,0,0,1,46,213)" stroke="rgb(204,255,204)">
      <rect x="729.3763" y="880.9984" clip-path="url(#clipPath2)" width="174.7793" rx="4" ry="4" height="94.3984" stroke="none"/>
    </g>
    <g text-rendering="geometricPrecision" stroke-miterlimit="1.45" shape-rendering="geometricPrecision" font-family="sans-serif" transform="matrix(1,0,0,1,46,213)" stroke-linecap="butt">
      <text x="754.0619" xml:space="preserve" y="903.5092" clip-path="url(#clipPath2)" stroke="none">In case 2FA is enabled,</text>
      <text x="753.0687" xml:space="preserve" y="918.2103" clip-path="url(#clipPath2)" stroke="none">PBX will send Authorize</text>
      <text x="734.3773" xml:space="preserve" y="932.9115" clip-path="url(#clipPath2)" stroke="none">message and hold LoginResult</text>
      <text x="756.391" xml:space="preserve" y="947.6127" clip-path="url(#clipPath2)" stroke="none">message upon second</text>
      <text x="768.7455" xml:space="preserve" y="962.3138" clip-path="url(#clipPath2)" stroke="none">factor confirmaton</text>
      <rect x="729.3763" y="880.9984" clip-path="url(#clipPath2)" fill="none" width="174.7793" rx="4" ry="4" height="94.3984"/>
    </g>
    <g fill="rgb(204,255,204)" text-rendering="geometricPrecision" shape-rendering="geometricPrecision" transform="matrix(1,0,0,1,46,213)" stroke="rgb(204,255,204)">
      <rect x="-20.1718" y="666.256" clip-path="url(#clipPath2)" width="214.7793" rx="4" ry="4" height="103.3984" stroke="none"/>
    </g>
    <g text-rendering="geometricPrecision" stroke-miterlimit="1.45" shape-rendering="geometricPrecision" font-family="sans-serif" transform="matrix(1,0,0,1,46,213)" stroke-linecap="butt">
      <text x="31.5948" xml:space="preserve" y="693.2667" clip-path="url(#clipPath2)" stroke="none">Calculate "response"</text>
      <text x="23.8487" xml:space="preserve" y="707.9679" clip-path="url(#clipPath2)" stroke="none">as SHA256 of the string</text>
      <text x="6.8214" xml:space="preserve" y="722.6691" clip-path="url(#clipPath2)" stroke="none">innovaphoneAppClient:&lt;type&gt;</text>
      <text x="-10.8447" xml:space="preserve" y="737.3702" clip-path="url(#clipPath2)" stroke="none">:&lt;domain&gt;:&lt;username&gt;:&lt;password&gt;</text>
      <text x="27.8331" xml:space="preserve" y="752.0714" clip-path="url(#clipPath2)" stroke="none">:&lt;nonce&gt;:&lt;challenge&gt;</text>
      <rect x="-20.1718" y="666.256" clip-path="url(#clipPath2)" fill="none" width="214.7793" rx="4" ry="4" height="103.3984"/>
      <path fill="none" stroke-dasharray="6,2" d="M237.0629 -88.9444 L237.1689 -58.9444" clip-path="url(#clipPath2)"/>
      <path fill="none" d="M243.5177 19.228 L680.3752 19.228" clip-path="url(#clipPath2)"/>
      <path d="M688.3752 19.228 L676.3752 14.228 L679.3752 19.228 L676.3752 24.228 Z" clip-path="url(#clipPath2)" stroke="none"/>
      <rect x="312.3611" y="-19.525" clip-path="url(#clipPath2)" fill="white" width="307.1641" height="77.5059" stroke="none"/>
      <text x="314.3611" xml:space="preserve" y="-5.4605" clip-path="url(#clipPath2)" stroke="none">{</text>
      <text x="314.3611" xml:space="preserve" y="9.2406" clip-path="url(#clipPath2)" stroke="none">    "mt": "Login",</text>
      <text x="314.3611" xml:space="preserve" y="23.9418" clip-path="url(#clipPath2)" stroke="none">    "type": "session",</text>
      <text x="314.3611" xml:space="preserve" y="38.643" clip-path="url(#clipPath2)" stroke="none">    "userAgent": "websocket.class.php (PHP WebSocket)"</text>
      <text x="314.3611" xml:space="preserve" y="53.3442" clip-path="url(#clipPath2)" stroke="none">}</text>
      <path fill="none" d="M243.5166 228.9923 L680.3614 228.9923" clip-path="url(#clipPath2)"/>
      <path d="M688.3614 228.9923 L676.3614 223.9923 L679.3614 228.9923 L676.3614 233.9923 Z" clip-path="url(#clipPath2)" stroke="none"/>
      <rect x="312.3611" y="160.8371" clip-path="url(#clipPath2)" fill="white" width="307.1641" height="136.3105" stroke="none"/>
      <text x="314.3611" xml:space="preserve" y="174.9015" clip-path="url(#clipPath2)" stroke="none">{</text>
      <text x="314.3611" xml:space="preserve" y="189.6027" clip-path="url(#clipPath2)" stroke="none">    "mt": "Login",</text>
      <text x="314.3611" xml:space="preserve" y="204.3039" clip-path="url(#clipPath2)" stroke="none">    "type": "session",</text>
      <text x="314.3611" xml:space="preserve" y="219.005" clip-path="url(#clipPath2)" stroke="none">    "method": "digest",</text>
      <text x="314.3611" xml:space="preserve" y="233.7062" clip-path="url(#clipPath2)" stroke="none">    "username": "0f4f341...11731",</text>
      <text x="314.3611" xml:space="preserve" y="248.4074" clip-path="url(#clipPath2)" stroke="none">    "nonce": "a491f76e528be0b9",</text>
      <text x="314.3611" xml:space="preserve" y="263.1086" clip-path="url(#clipPath2)" stroke="none">    "response": "56320...c4839c0c2b1",</text>
      <text x="314.3611" xml:space="preserve" y="277.8097" clip-path="url(#clipPath2)" stroke="none">    "userAgent": "websocket.class.php (PHP WebSocket)"</text>
      <text x="314.3611" xml:space="preserve" y="292.5109" clip-path="url(#clipPath2)" stroke="none">}</text>
      <path fill="none" stroke-dasharray="6,2" d="M693.8763 -88.9444 L693.8763 -58.9444" clip-path="url(#clipPath2)"/>
      <path fill="none" d="M243.5214 -34.2937 L679.3453 -34.2937" stroke-width="2" clip-path="url(#clipPath2)"/>
      <path d="M688.3453 -34.2937 L674.8453 -39.9187 L678.2203 -34.2937 L674.8453 -28.6687 Z" stroke-width="2" clip-path="url(#clipPath2)" stroke="none"/>
    </g>
    <g stroke-linecap="butt" transform="matrix(1,0,0,1,46,213)" fill="white" text-rendering="geometricPrecision" shape-rendering="geometricPrecision" stroke="white" stroke-width="2" stroke-miterlimit="1.45">
      <rect x="329.5378" width="272.8105" height="33.4023" y="-50.9948" clip-path="url(#clipPath2)" stroke="none"/>
    </g>
    <g text-rendering="geometricPrecision" stroke-miterlimit="1.45" shape-rendering="geometricPrecision" font-family="sans-serif" transform="matrix(1,0,0,1,46,213)" stroke-linecap="butt">
      <text x="436.9245" xml:space="preserve" y="-36.9304" clip-path="url(#clipPath2)" stroke="none">Connect to</text>
      <text x="331.5378" xml:space="preserve" y="-22.2292" clip-path="url(#clipPath2)" stroke="none">ws://1.2.3.4/PBX0/APPCLIENT/130000/websocket</text>
      <path fill="none" d="M688.3453 108.8667 L251.525 108.8667" clip-path="url(#clipPath2)"/>
      <path d="M243.525 108.8667 L255.525 113.8667 L252.525 108.8667 L255.525 103.8667 Z" clip-path="url(#clipPath2)" stroke="none"/>
      <rect x="366.3435" y="55.4126" clip-path="url(#clipPath2)" fill="white" width="199.1992" height="106.9082" stroke="none"/>
      <text x="368.3435" xml:space="preserve" y="69.4771" clip-path="url(#clipPath2)" stroke="none">{</text>
      <text x="368.3435" xml:space="preserve" y="84.1782" clip-path="url(#clipPath2)" stroke="none">    "mt": "Authenticate",</text>
      <text x="368.3435" xml:space="preserve" y="98.8794" clip-path="url(#clipPath2)" stroke="none">    "type": "session",</text>
      <text x="368.3435" xml:space="preserve" y="113.5806" clip-path="url(#clipPath2)" stroke="none">    "method": "digest",</text>
      <text x="368.3435" xml:space="preserve" y="128.2817" clip-path="url(#clipPath2)" stroke="none">    "domain": "innovaphone.com",</text>
      <text x="368.3435" xml:space="preserve" y="142.9829" clip-path="url(#clipPath2)" stroke="none">    "challenge": "d96860923b454461"</text>
      <text x="368.3435" xml:space="preserve" y="157.6841" clip-path="url(#clipPath2)" stroke="none">}</text>
      <path fill="none" d="M688.3807 340.3996 L251.5122 340.3996" clip-path="url(#clipPath2)"/>
      <path d="M243.5122 340.3996 L255.5122 345.3996 L252.5122 340.3996 L255.5122 335.3996 Z" clip-path="url(#clipPath2)" stroke="none"/>
      <rect x="378.3933" y="301.6467" clip-path="url(#clipPath2)" fill="white" width="175.0996" height="77.5059" stroke="none"/>
      <text x="380.3933" xml:space="preserve" y="315.7111" clip-path="url(#clipPath2)" stroke="none">{</text>
      <text x="380.3933" xml:space="preserve" y="330.4123" clip-path="url(#clipPath2)" stroke="none">    "mt": "LoginResult",</text>
      <text x="380.3933" xml:space="preserve" y="345.1135" clip-path="url(#clipPath2)" stroke="none">    "error": 5,</text>
      <text x="380.3933" xml:space="preserve" y="359.8146" clip-path="url(#clipPath2)" stroke="none">    "errorText": "Session expired"</text>
      <text x="380.3933" xml:space="preserve" y="374.5158" clip-path="url(#clipPath2)" stroke="none">}</text>
      <path fill="none" stroke-dasharray="6,2" d="M238.0098 416.6889 L238.0098 468.5079" clip-path="url(#clipPath2)"/>
      <path fill="none" d="M243.5083 525.118 L680.3672 525.118" clip-path="url(#clipPath2)"/>
      <path d="M688.3672 525.118 L676.3672 520.118 L679.3672 525.118 L676.3672 530.118 Z" clip-path="url(#clipPath2)" stroke="none"/>
      <rect x="312.3611" y="486.365" clip-path="url(#clipPath2)" fill="white" width="307.1641" height="77.5059" stroke="none"/>
      <text x="314.3611" xml:space="preserve" y="500.4295" clip-path="url(#clipPath2)" stroke="none">{</text>
      <text x="314.3611" xml:space="preserve" y="515.1307" clip-path="url(#clipPath2)" stroke="none">    "mt": "Login",</text>
      <text x="314.3611" xml:space="preserve" y="529.8318" clip-path="url(#clipPath2)" stroke="none">    "type": "user",</text>
      <text x="314.3611" xml:space="preserve" y="544.533" clip-path="url(#clipPath2)" stroke="none">    "userAgent": "websocket.class.php (PHP WebSocket)"</text>
      <text x="314.3611" xml:space="preserve" y="559.2342" clip-path="url(#clipPath2)" stroke="none">}</text>
      <path fill="none" stroke-dasharray="6,2" d="M693.8763 416.6889 L693.8763 468.5079" clip-path="url(#clipPath2)"/>
      <path fill="none" d="M243.502 759.735 L680.3672 759.735" clip-path="url(#clipPath2)"/>
      <path d="M688.3672 759.735 L676.3672 754.735 L679.3672 759.735 L676.3672 764.735 Z" clip-path="url(#clipPath2)" stroke="none"/>
      <rect x="312.3611" y="691.5798" clip-path="url(#clipPath2)" fill="white" width="307.1641" height="136.3105" stroke="none"/>
      <text x="314.3611" xml:space="preserve" y="705.6442" clip-path="url(#clipPath2)" stroke="none">{</text>
      <text x="314.3611" xml:space="preserve" y="720.3454" clip-path="url(#clipPath2)" stroke="none">    "mt": "Login",</text>
      <text x="314.3611" xml:space="preserve" y="735.0466" clip-path="url(#clipPath2)" stroke="none">    "type": "user",</text>
      <text x="314.3611" xml:space="preserve" y="749.7477" clip-path="url(#clipPath2)" stroke="none">    "method": "digest",</text>
      <text x="314.3611" xml:space="preserve" y="764.4489" clip-path="url(#clipPath2)" stroke="none">    "username": "administrator",</text>
      <text x="314.3611" xml:space="preserve" y="779.1501" clip-path="url(#clipPath2)" stroke="none">    "nonce": "a491f76e528be0b9",</text>
      <text x="314.3611" xml:space="preserve" y="793.8513" clip-path="url(#clipPath2)" stroke="none">    "response": "09b1c479...0f3b12b",</text>
      <text x="314.3611" xml:space="preserve" y="808.5524" clip-path="url(#clipPath2)" stroke="none">    "userAgent": "websocket.class.php (PHP WebSocket)"</text>
      <text x="314.3611" xml:space="preserve" y="823.2536" clip-path="url(#clipPath2)" stroke="none">}</text>
      <path fill="none" d="M688.3516 625.0283 L251.5342 625.0283" clip-path="url(#clipPath2)"/>
      <path d="M243.5342 625.0283 L255.5342 630.0283 L252.5342 625.0283 L255.5342 620.0283 Z" clip-path="url(#clipPath2)" stroke="none"/>
      <rect x="369.6833" y="571.5742" clip-path="url(#clipPath2)" fill="white" width="192.5195" height="106.9082" stroke="none"/>
      <text x="371.6833" xml:space="preserve" y="585.6387" clip-path="url(#clipPath2)" stroke="none">{</text>
      <text x="371.6833" xml:space="preserve" y="600.3398" clip-path="url(#clipPath2)" stroke="none">    "mt": "Authenticate",</text>
      <text x="371.6833" xml:space="preserve" y="615.041" clip-path="url(#clipPath2)" stroke="none">    "type": "user",</text>
      <text x="371.6833" xml:space="preserve" y="629.7422" clip-path="url(#clipPath2)" stroke="none">    "method": "digest",</text>
      <text x="371.6833" xml:space="preserve" y="644.4434" clip-path="url(#clipPath2)" stroke="none">    "domain": "innovaphone.com",</text>
      <text x="371.6833" xml:space="preserve" y="659.1445" clip-path="url(#clipPath2)" stroke="none">    "challenge": "9d9a00b3ffeebd12"</text>
      <text x="371.6833" xml:space="preserve" y="673.8457" clip-path="url(#clipPath2)" stroke="none">}</text>
      <path fill="none" d="M688.3594 1035.7864 L251.5004 1035.7864" clip-path="url(#clipPath2)"/>
      <path d="M243.5004 1035.7864 L255.5004 1040.7864 L252.5004 1035.7864 L255.5004 1030.7864 Z" clip-path="url(#clipPath2)" stroke="none"/>
      <rect x="363.3728" y="894.1252" clip-path="url(#clipPath2)" fill="white" width="205.1406" height="283.3223" stroke="none"/>
      <text x="365.3728" xml:space="preserve" y="908.1896" clip-path="url(#clipPath2)" stroke="none">{</text>
      <text x="365.3728" xml:space="preserve" y="922.8908" clip-path="url(#clipPath2)" stroke="none">    "mt": "LoginResult",</text>
      <text x="365.3728" xml:space="preserve" y="937.592" clip-path="url(#clipPath2)" stroke="none">    "info": {</text>
      <text x="365.3728" xml:space="preserve" y="952.2932" clip-path="url(#clipPath2)" stroke="none">        "session": {</text>
      <text x="365.3728" xml:space="preserve" y="966.9943" clip-path="url(#clipPath2)" stroke="none">            "pwd": "5c17869...69d",</text>
      <text x="365.3728" xml:space="preserve" y="981.6955" clip-path="url(#clipPath2)" stroke="none">            "usr": "c5abbb35a...0b5e"</text>
      <text x="365.3728" xml:space="preserve" y="996.3967" clip-path="url(#clipPath2)" stroke="none">        },</text>
      <text x="365.3728" xml:space="preserve" y="1011.0978" clip-path="url(#clipPath2)" stroke="none">        "settings": {},</text>
      <text x="365.3728" xml:space="preserve" y="1025.7991" clip-path="url(#clipPath2)" stroke="none">        "user": {</text>
      <text x="365.3728" xml:space="preserve" y="1040.5002" clip-path="url(#clipPath2)" stroke="none">            "dn": "Administrator User",</text>
      <text x="365.3728" xml:space="preserve" y="1055.2014" clip-path="url(#clipPath2)" stroke="none">            "domain": "innovaphone.com",</text>
      <text x="365.3728" xml:space="preserve" y="1069.9026" clip-path="url(#clipPath2)" stroke="none">            "guid": "ee5f5cd...5b9",</text>
      <text x="365.3728" xml:space="preserve" y="1084.6038" clip-path="url(#clipPath2)" stroke="none">            "num": "",</text>
      <text x="365.3728" xml:space="preserve" y="1099.3049" clip-path="url(#clipPath2)" stroke="none">            "prefix": {},</text>
      <text x="365.3728" xml:space="preserve" y="1114.0061" clip-path="url(#clipPath2)" stroke="none">            "sip": "administrator"</text>
      <text x="365.3728" xml:space="preserve" y="1128.7073" clip-path="url(#clipPath2)" stroke="none">        }</text>
      <text x="365.3728" xml:space="preserve" y="1143.4084" clip-path="url(#clipPath2)" stroke="none">    },</text>
      <text x="365.3728" xml:space="preserve" y="1158.1096" clip-path="url(#clipPath2)" stroke="none">    "digest": "a67d926ae...3ce3"</text>
      <text x="365.3728" xml:space="preserve" y="1172.8108" clip-path="url(#clipPath2)" stroke="none">}</text>
      <path fill="none" d="M688.3438 863.9988 L251.5469 863.9988" clip-path="url(#clipPath2)"/>
      <path d="M243.5469 863.9988 L255.5469 868.9988 L252.5469 863.9988 L255.5469 858.9988 Z" clip-path="url(#clipPath2)" stroke="none"/>
      <rect x="411.7419" y="832.5965" clip-path="url(#clipPath2)" fill="white" width="108.4023" height="62.8047" stroke="none"/>
      <text x="413.7419" xml:space="preserve" y="846.6609" clip-path="url(#clipPath2)" stroke="none">{</text>
      <text x="413.7419" xml:space="preserve" y="861.3621" clip-path="url(#clipPath2)" stroke="none">    "mt": "Authorize",</text>
      <text x="413.7419" xml:space="preserve" y="876.0633" clip-path="url(#clipPath2)" stroke="none">    "code": "2345"</text>
      <text x="413.7419" xml:space="preserve" y="890.7645" clip-path="url(#clipPath2)" stroke="none">}</text>
    </g>
    <g stroke-linecap="round" transform="matrix(1,0,0,1,46,213)" stroke-dashoffset="2" text-rendering="geometricPrecision" shape-rendering="geometricPrecision" stroke-dasharray="0,4" stroke-miterlimit="1.45">
      <path fill="none" d="M760.4259 298.3902 L699.3852 339.514" clip-path="url(#clipPath2)"/>
      <path fill="none" d="M194.6263 219.2509 L232.4991 227.651" clip-path="url(#clipPath2)"/>
      <path fill="none" d="M552.8115 -140.7405 L647.5951 -116.0167" clip-path="url(#clipPath2)"/>
      <path fill="none" d="M191.0886 15.0409 L232.4796 19.6363" clip-path="url(#clipPath2)"/>
      <path fill="none" d="M166.7109 508.7438 L232.5 521.1976" clip-path="url(#clipPath2)"/>
      <path fill="none" d="M731.8707 881.3005 L699.4081 863.3678" clip-path="url(#clipPath2)"/>
      <path fill="none" d="M763.7089 975.3752 L699.3896 1032.567" clip-path="url(#clipPath2)"/>
      <path fill="none" d="M194.6378 746.7958 L232.4777 756.9552" clip-path="url(#clipPath2)"/>
    </g>
  </g>
</svg>
